<?xml version="1.0" encoding="utf-8"?>
<!-- Generator: Adobe Illustrator 27.4.0, SVG Export Plug-In . SVG Version: 6.00 Build 0)  -->
<svg version="1.1" id="Ebene_1" xmlns="http://www.w3.org/2000/svg" xmlns:xlink="http://www.w3.org/1999/xlink" x="0px" y="0px"
	 viewBox="0 0 500 524.8" style="enable-background:new 0 0 500 524.8;" xml:space="preserve">
<g id="Nadel">
	<path d="M1032.5,429.4l-124.1-44.8V148.3L1032.5,429.4z M908.4,179.4l-100,228l100-36.1V179.4 M908.4,148.3v236.4l-124.1,44.8
		L908.4,148.3L908.4,148.3z"/>
</g>
<path id="Kreis_00000120534054701592586490000007385739902284806814_" d="M289,94.4h-25.4L222.5,23h-0.6c0.2,3,0.3,6,0.5,9
	c0.1,3,0.3,6,0.4,9c0.1,3,0.3,6,0.4,9v44.4h-17.9V0h25.2l41,70.7h0.5c-0.1-2.9-0.2-5.8-0.3-8.7c-0.1-2.9-0.2-5.8-0.4-8.7
	c-0.1-2.9-0.2-5.8-0.3-8.7V0h18V94.4z M320.8,35.1v34.6c4.6,1.6,9.1,3.3,13.6,5.2c25.8,10.9,49,26.6,69,46.5
	c19.9,19.9,35.6,43.1,46.5,69c11.3,26.7,17,55.1,17,84.5s-5.7,57.7-17,84.5c-10.9,25.8-26.6,49-46.5,69
	c-19.9,19.9-43.1,35.6-69,46.5c-26.7,11.3-55.1,17-84.5,17s-57.7-5.7-84.5-17c-25.8-10.9-49-26.6-69-46.5
	c-19.9-19.9-35.6-43.1-46.5-69c-11.3-26.7-17-55.1-17-84.5s5.7-57.7,17-84.5c10.9-25.8,26.6-49,46.5-69c19.9-19.9,43.1-35.6,69-46.5
	c4.5-1.9,9-3.6,13.6-5.2V35.1C75.6,65.6,0,161.4,0,274.8c0,138.1,111.9,250,250,250s250-111.9,250-250
	C500,161.4,424.4,65.6,320.8,35.1z"/>
</svg>
